<svg xmlns="http://www.w3.org/2000/svg" width="24" height="34.436" viewBox="0 0 24 34.436">
    <defs>
        <style>
            .cls-1{fill:#2c313f}.cls-4{fill:#fff}.cls-5{fill:#575e72}.cls-6{fill:#707c9b}.cls-7{fill:#929db7}.cls-11{fill:none}
        </style>
    </defs>
    <g id="Group_2263" transform="translate(-1161 -435.564)">
        <g id="mobilebank" transform="translate(1161 435.564)">
            <g id="Layer_2">
                <g id="_2">
                    <rect id="Rectangle_1627" width="15.594" height="30.11" class="cls-1" rx="2.99" transform="translate(1.406)"/>
                    <rect id="Rectangle_1628" width="15.594" height="30.11" fill="#363b4c" rx="2.99"/>
                    <path id="Rectangle_1629" d="M0 0H13.832V23.374H0z" class="cls-1" transform="translate(.729 3.194)"/>
                    <path id="Rectangle_1630" fill="#0eafe0" d="M0 0H12.948V22.497H0z" transform="translate(1.174 3.626)"/>
                    <path id="Path_2530" d="M11.293 44.173a1.006 1.006 0 1 1 1-1 1.006 1.006 0 0 1-1 1zm0-1.806a.806.806 0 1 0 .806.806.806.806 0 0 0-.806-.806z" class="cls-4" transform="translate(-3.648 -14.96)"/>
                    <path id="Path_2531" d="M5.5 44.061a.077.077 0 0 1-.052 0l-.935-.587a.1.1 0 0 1 0-.168l.935-.645a.077.077 0 0 1 .1 0 .09.09 0 0 1 .058.084v1.245a.1.1 0 0 1-.052.084.077.077 0 0 1-.054-.013zm-.755-.69l.645.419v-.884z" class="cls-4" transform="translate(-1.587 -15.132)"/>
                    <path id="Path_2532" d="M18.381 44.034h-1.174a.1.1 0 0 1-.1-.1v-1.171a.1.1 0 0 1 .1-.1h1.174a.1.1 0 0 1 .1.1v1.174a.1.1 0 0 1-.1.097zm-1.081-.193h.981v-.961H17.3z" class="cls-4" transform="translate(-6.071 -15.137)"/>
                    <path id="Path_2533" d="M20.943 0h-.413a1.935 1.935 0 0 1 1.935 1.935v26.246a1.935 1.935 0 0 1-1.935 1.935h.413a1.935 1.935 0 0 0 1.935-1.935V1.935A1.935 1.935 0 0 0 20.943 0z" class="cls-5" transform="translate(-7.285)"/>
                    <rect id="Rectangle_1631" width=".626" height="3.677" class="cls-5" rx=".28" transform="translate(16.013 3.942)"/>
                    <rect id="Rectangle_1632" width=".626" height="3.677" class="cls-6" rx=".28" transform="translate(16.2 3.942)"/>
                    <path id="Path_2534" d="M25.207 9.607V6.291a.174.174 0 0 1 .181-.181h-.1a.181.181 0 0 0-.181.181v3.316a.187.187 0 0 0 .181.181h.1a.181.181 0 0 1-.181-.181z" class="cls-7" transform="translate(-8.91 -2.168)"/>
                    <rect id="Rectangle_1633" width=".626" height="3.677" class="cls-5" rx=".28" transform="translate(16.013 7.832)"/>
                    <rect id="Rectangle_1634" width=".626" height="3.677" class="cls-6" rx=".28" transform="translate(16.2 7.832)"/>
                    <path id="Path_2535" d="M25.207 15.637v-3.316a.181.181 0 0 1 .181-.181h-.1a.187.187 0 0 0-.181.181v3.316a.181.181 0 0 0 .181.181h.1a.174.174 0 0 1-.181-.181z" class="cls-7" transform="translate(-8.91 -4.308)"/>
                    <rect id="Rectangle_1635" width=".626" height="1.084" class="cls-5" rx=".28" transform="translate(16.013 12.819)"/>
                    <rect id="Rectangle_1636" width=".626" height="1.084" class="cls-6" rx=".28" transform="translate(16.2 12.819)"/>
                    <path id="Path_2536" d="M25.207 20.773v-.723a.181.181 0 0 1 .181-.181h-.1a.187.187 0 0 0-.181.181v.723a.187.187 0 0 0 .181.181h.1a.181.181 0 0 1-.181-.181z" class="cls-7" transform="translate(-8.91 -7.051)"/>
                    <circle id="Ellipse_43" cx=".497" cy=".497" r=".497" class="cls-1" transform="translate(11.31 1.116)"/>
                    <rect id="Rectangle_1637" width="3.735" height=".748" class="cls-1" rx=".35" transform="translate(5.774 1.239)"/>
                    <path id="Rectangle_1638" fill="#ffc933" d="M0 0H9.981V3.116H0z" transform="translate(2.658 20.226)"/>
                    <path id="Path_2537" d="M7.4 32h.645a1.29 1.29 0 0 1 .677.135.471.471 0 0 1 .213.426.581.581 0 0 1-.09.329.355.355 0 0 1-.245.148.432.432 0 0 1 .3.174.555.555 0 0 1 .1.342.581.581 0 0 1-.219.471.91.91 0 0 1-.587.168H7.4zm.465.877h.271a.5.5 0 0 0 .3-.052.252.252 0 0 0 0-.381.645.645 0 0 0-.29-.052h-.281zm0 .374v.574h.3a.484.484 0 0 0 .265-.065.29.29 0 0 0 .09-.226c0-.187-.129-.277-.394-.277z" class="cls-4" transform="translate(-2.626 -11.353)"/>
                    <path id="Path_2538" d="M12.376 32v1.432a.787.787 0 0 1-.11.432.7.7 0 0 1-.31.284 1.168 1.168 0 0 1-.49.1.935.935 0 0 1-.645-.219.781.781 0 0 1-.232-.6V32h.465v1.355a.542.542 0 0 0 .1.374.4.4 0 0 0 .335.123.387.387 0 0 0 .329-.123.555.555 0 0 0 .1-.374V32z" class="cls-4" transform="translate(-3.757 -11.355)"/>
                    <path id="Path_2539" d="M14.725 32.923l.484-.923h.5l-.729 1.355v.858h-.465v-.839L13.77 32h.5z" class="cls-4" transform="translate(-4.886 -11.355)"/>
                    <path id="Path_2540" d="M11.639 21H7.891a1.29 1.29 0 0 1-1.29-.987L5.31 14.7l-1.161-.3a.127.127 0 1 1 .065-.245l1.232.323a.129.129 0 0 1 .09.09l1.29 5.387a1.045 1.045 0 0 0 1.065.794h3.774a.127.127 0 1 1-.026.252z" class="cls-4" transform="translate(-1.439 -5.023)"/>
                    <path id="Path_2541" d="M13.154 20.515H7.5a.126.126 0 0 1 0-.252h5.568l.735-3.058H6.7a.123.123 0 0 1 0-.245h7.245a.116.116 0 0 1 .1.045.135.135 0 0 1 0 .11l-.742 3.3a.123.123 0 0 1-.148.1z" class="cls-4" transform="translate(-2.335 -6.018)"/>
                    <path id="Path_2542" d="M13.747 19.67H7.353a.129.129 0 1 1 0-.252h6.394a.126.126 0 0 1 0 .252z" class="cls-4" transform="translate(-2.553 -6.889)"/>
                    <path id="Path_2543" d="M15.213 26.225a.923.923 0 1 1 .923-.923.923.923 0 0 1-.923.923zm0-1.594a.645.645 0 1 0 .645.645.645.645 0 0 0-.645-.644z" class="cls-4" transform="translate(-5.071 -8.651)"/>
                    <path id="Path_2544" d="M8.923 26.225a.923.923 0 1 1 .923-.923.923.923 0 0 1-.923.923zm0-1.594a.645.645 0 1 0 .477.177.645.645 0 0 0-.477-.176z" class="cls-4" transform="translate(-2.839 -8.651)"/>
                    <path id="Path_2545" d="M4.3 14.231A.277.277 0 1 1 4.022 14a.277.277 0 0 1 .274.235z" class="cls-4" transform="translate(-1.329 -4.966)"/>
                    <path id="Path_2546" d="M9.362 20.465a.11.11 0 0 1-.116-.1l-.729-3.226a.123.123 0 1 1 .239-.052l.729 3.226a.129.129 0 0 1-.09.148z" class="cls-4" transform="translate(-3.02 -6.027)"/>
                    <path id="Path_2547" d="M14.826 20.469a.129.129 0 0 1-.1-.148l.729-3.226a.123.123 0 0 1 .148-.1.129.129 0 0 1 .1.148l-.729 3.226a.123.123 0 0 1-.148.1z" class="cls-4" transform="translate(-5.226 -6.03)"/>
                    <path id="Path_2548" d="M13.04 20.471a.129.129 0 0 1-.11-.135l.387-3.226a.123.123 0 1 1 .245.026l-.381 3.226a.129.129 0 0 1-.142.11z" class="cls-4" transform="translate(-4.588 -6.032)"/>
                    <path id="Path_2549" d="M11.35 20.478a.129.129 0 0 1-.129-.11l-.381-3.226a.123.123 0 0 1 .245 0l.387 3.226a.129.129 0 0 1-.11.135z" class="cls-4" transform="translate(-3.846 -6.039)"/>
                    <path id="Path_2550" d="M11.806 13.772a1.116 1.116 0 1 1 1.116-1.116 1.116 1.116 0 0 1-1.116 1.116zm0-2.039a.913.913 0 1 1 0 .019z" class="cls-4" transform="translate(-3.793 -4.095)"/>
                    <path id="Path_2551" d="M12.363 13.614a.1.1 0 0 1-.1-.1v-1.29a.1.1 0 0 1 .2 0v1.29a.1.1 0 0 1-.1.1z" class="cls-4" transform="translate(-4.35 -4.304)"/>
                    <path id="Path_2552" d="M12.637 13.344h-1.29a.1.1 0 0 1 0-.194h1.29a.1.1 0 0 1 0 .194z" class="cls-4" transform="translate(-3.992 -4.666)"/>
                    <path id="Path_2553" fill="#fff" d="M1.82 28.127V5.63h12.948z" opacity="0.2" transform="translate(-.646 -1.998)"/>
                </g>
            </g>
        </g>
        <g id="Group_2261" transform="translate(1170 451.12)">
            <g id="Rounded_Rectangle_7_copy_10" fill="#307dd2" stroke="#fff" stroke-linejoin="round" transform="translate(1 4.88)">
                <rect width="14" height="14" stroke="none" rx="4"/>
                <rect width="13" height="13" x=".5" y=".5" class="cls-11" rx="3.5"/>
            </g>
            <g id="ic-actions-add" transform="translate(4 7.88)">
                <path id="Rectangle_25" d="M0 0H7.091V7.091H0z" class="cls-11"/>
                <g id="Layer">
                    <path id="Path_64" fill="#fff" fill-rule="evenodd" d="M1 5a4 4 0 1 1 4 4 4 4 0 0 1-4-4zm4-3.273A3.273 3.273 0 1 0 8.273 5 3.273 3.273 0 0 0 5 1.727z" transform="translate(-1 -1)"/>
                    <path id="Path_65" d="M11.364 10.362a.342.342 0 0 1-.364-.313V6.311a.368.368 0 0 1 .727 0v3.738a.342.342 0 0 1-.363.313z" class="cls-4" transform="translate(-7.364 -4.18)"/>
                    <path id="Path_66" d="M6 11.364A.342.342 0 0 1 6.311 11h3.738a.368.368 0 0 1 0 .727H6.311A.342.342 0 0 1 6 11.364z" class="cls-4" transform="translate(-4.18 -7.364)"/>
                </g>
            </g>
        </g>
    </g>
</svg>
