<svg xmlns="http://www.w3.org/2000/svg" width="206.316" height="127" viewBox="0 0 206.316 127">
    <defs>
        <filter id="Rectangle_1655" width="197" height="109" x="4.292" y="18" filterUnits="userSpaceOnUse">
            <feOffset dy="3"/>
            <feGaussianBlur result="blur" stdDeviation="3"/>
            <feFlood flood-color="#a1a1a1" flood-opacity=".161"/>
            <feComposite in2="blur" operator="in"/>
            <feComposite in="SourceGraphic"/>
        </filter>
        <style>
            .cls-4{fill:#085fcc}.cls-5{fill:#88b2e7}.cls-6{fill:#dae7f7}.cls-7{fill:#669cdf}
        </style>
    </defs>
    <g id="Group_2325" transform="translate(-615.708 -325)">
        <g filter="url(#Rectangle_1655)" transform="translate(615.71 325)">
            <rect id="Rectangle_1655-2" width="179" height="91" fill="#f2f4f8" rx="10" transform="translate(13.29 24)"/>
        </g>
        <g id="Group_2325-2" transform="translate(1 5)">
            <circle id="Ellipse_49" cx="27" cy="27" r="27" fill="#307dd2" transform="translate(692 374)"/>
            <path id="Union_2" fill="#fff" d="M11.759 23.943L1.355 16.2a3.511 3.511 0 0 1-.78-4.7A3.058 3.058 0 0 1 5 10.67l8.084 6.016L24.787 1.323a3.1 3.1 0 0 1 4.536-.59 3.585 3.585 0 0 1 .4 4.838L16.282 23.213a3.288 3.288 0 0 1-2.207 1.3 3.01 3.01 0 0 1-2.316-.569z" transform="translate(704.299 387.574)"/>
        </g>
        <g id="Layer_2" transform="translate(615.708 325)">
            <g id="Layer_1">
                <path id="Path_2576" d="M440.21 111.37h22.917v8.555a11.407 11.407 0 0 1-11.407 11.407h-.115a11.407 11.407 0 0 1-11.405-11.407v-8.555z" class="cls-4" transform="translate(-325.561 -82.366)"/>
                <path id="Path_2577" d="M352.19 111.37h22.917v8.555a11.407 11.407 0 0 1-11.407 11.407h-.1a11.407 11.407 0 0 1-11.407-11.407v-8.555z" class="cls-5" transform="translate(-260.471 -82.366)"/>
                <path id="Path_2578" d="M264.1 111.37h22.92v8.555a11.407 11.407 0 0 1-11.407 11.407h-.113a11.407 11.407 0 0 1-11.407-11.407v-8.555z" class="cls-4" transform="translate(-195.314 -82.366)"/>
                <path id="Path_2579" d="M176.063 111.37h22.917v8.555a11.407 11.407 0 0 1-11.407 11.407h-.117a11.407 11.407 0 0 1-11.407-11.407v-8.555z" class="cls-5" transform="translate(-130.202 -82.366)"/>
                <path id="Path_2580" d="M88 111.37h22.917v8.555a11.407 11.407 0 0 1-11.381 11.4h-.116A11.407 11.407 0 0 1 88 119.922z" class="cls-4" transform="translate(-65.083 -82.366)"/>
                <path id="Path_2581" d="M704.18 111.37h22.92v8.555a11.407 11.407 0 0 1-11.407 11.407h-.1a11.407 11.407 0 0 1-11.407-11.407v-8.555z" class="cls-5" transform="translate(-520.794 -82.366)"/>
                <path id="Path_2582" d="M616.093 111.37h22.917v8.555a11.407 11.407 0 0 1-11.41 11.407h-.117a11.407 11.407 0 0 1-11.407-11.407v-8.555z" class="cls-4" transform="translate(-455.637 -82.366)"/>
                <path id="Path_2583" d="M528.253 111.37h22.917v8.555a11.407 11.407 0 0 1-11.407 11.407h-.117a11.407 11.407 0 0 1-11.407-11.407v-8.555z" class="cls-5" transform="translate(-390.673 -82.366)"/>
                <path id="Path_2584" d="M0 111.37h22.917v8.555a11.407 11.407 0 0 1-11.394 11.4h-.117A11.407 11.407 0 0 1 0 119.922z" class="cls-5" transform="translate(0 -82.366)"/>
                <path id="Path_2585" d="M371.805 0H355.5l-3.31 29h22.93z" class="cls-6" transform="translate(-260.471)"/>
                <path id="Path_2586" d="M290.383 0h-16.3l-9.94 29h22.93z" class="cls-7" transform="translate(-195.351)"/>
                <path id="Path_2587" d="M208.968 0h-16.3L176.1 29h22.928z" class="cls-6" transform="translate(-130.239)"/>
                <path id="Path_2588" d="M127.546 0h-16.3L88.05 29h22.93z" class="cls-7" transform="translate(-65.12)"/>
                <path id="Path_2589" d="M46.124 0h-16.3L0 29h22.93z" class="cls-6"/>
                <path id="Path_2590" d="M631.2 0h-16.3l23.251 29h22.93z" class="cls-6" transform="translate(-454.765)"/>
                <path id="Path_2591" d="M568.913 0h-16.3l16.542 29h22.93z" class="cls-7" transform="translate(-408.697)"/>
                <path id="Path_2592" d="M506.313 0h-16.3l9.969 29h22.928z" class="cls-6" transform="translate(-362.399)"/>
                <path id="Path_2593" d="M443.713 0h-16.3l3.341 29h22.93z" class="cls-7" transform="translate(-316.102)"/>
            </g>
        </g>
    </g>
</svg>
