<!-- <svg id="Layer_1" data-name="Layer 1" xmlns="http://www.w3.org/2000/svg" xmlns:xlink="http://www.w3.org/1999/xlink" viewBox="0 0 48 48"><defs><style>.cls-1{fill:none;}.cls-2{fill:#606060;}.cls-3{clip-path:url(#clip-path);}.cls-4{fill:url(#linear-gradient);}.cls-5{clip-path:url(#clip-path-2);}.cls-6{fill:url(#linear-gradient-2);}.cls-7{clip-path:url(#clip-path-3);}.cls-8{fill:url(#linear-gradient-3);}.cls-9{clip-path:url(#clip-path-4);}.cls-10{fill:url(#linear-gradient-4);}</style><clipPath id="clip-path"><polygon class="cls-1" points="38.35 24.33 24.24 38.44 34.15 48.34 34.15 48.34 48.27 34.23 48.27 34.23 48.27 14.42 38.35 24.33"/></clipPath><linearGradient id="linear-gradient" x1="4368.95" y1="4085.45" x2="4368.98" y2="4085.45" gradientTransform="matrix(874.62, -0.27, -0.27, -874.62, -3820051.81, 3574419.18)" gradientUnits="userSpaceOnUse"><stop offset="0" stop-color="#1b488c"/><stop offset="0.08" stop-color="#20579a"/><stop offset="0.2" stop-color="#2669ac"/><stop offset="0.36" stop-color="#2b75b9"/><stop offset="0.56" stop-color="#2d7dc0"/><stop offset="1" stop-color="#2e7fc2"/></linearGradient><clipPath id="clip-path-2"><polygon class="cls-1" points="24.24 38.44 10.15 24.35 0.27 34.23 0.27 34.29 14.32 48.34 14.33 48.34 34.15 48.34 24.24 38.44"/></clipPath><linearGradient id="linear-gradient-2" x1="4367" y1="4076.14" x2="4367.03" y2="4076.14" gradientTransform="matrix(-0.38, 1233.29, 1233.29, 0.38, -5025398.95, -5387312.24)" gradientUnits="userSpaceOnUse"><stop offset="0" stop-color="#1b488c"/><stop offset="0.03" stop-color="#1b488c"/><stop offset="0.1" stop-color="#215a9d"/><stop offset="0.2" stop-color="#276bae"/><stop offset="0.33" stop-color="#2b76b9"/><stop offset="0.51" stop-color="#2d7dc0"/><stop offset="1" stop-color="#2e7fc2"/></linearGradient><clipPath id="clip-path-3"><polygon class="cls-1" points="34.21 0.37 34.15 0.37 14.38 0.37 24.27 10.24 38.35 24.33 48.27 14.42 48.27 14.42 34.21 0.37"/></clipPath><linearGradient id="linear-gradient-3" x1="4367.34" y1="4075.26" x2="4367.37" y2="4075.26" gradientTransform="matrix(-0.38, 1233.29, 1233.29, 0.38, -5024304.75, -5387756.8)" gradientUnits="userSpaceOnUse"><stop offset="0" stop-color="#2e7fc2"/><stop offset="0.44" stop-color="#2d7dc0"/><stop offset="0.64" stop-color="#2b75b9"/><stop offset="0.8" stop-color="#2669ac"/><stop offset="0.92" stop-color="#20579a"/><stop offset="1" stop-color="#1b488c"/></linearGradient><clipPath id="clip-path-4"><polygon class="cls-1" points="14.38 0.37 14.32 0.37 0.27 14.42 0.27 14.48 0.27 34.23 10.15 24.35 24.27 10.24 14.38 0.37"/></clipPath><linearGradient id="linear-gradient-4" x1="4369.14" y1="4084.07" x2="4369.17" y2="4084.07" gradientTransform="matrix(873.59, -0.27, -0.27, -873.59, -3815729.89, 3568982.34)" xlink:href="#linear-gradient-3"/></defs><title>favicon-48</title><polygon class="cls-2" points="24.26 24.34 24.27 24.34 24.27 24.34 24.26 24.34"/><g class="cls-3"><rect class="cls-4" x="15.71" y="10.95" width="41.08" height="40.86" transform="translate(-11.51 35.57) rotate(-45.89)"/></g><g class="cls-5"><rect class="cls-6" x="-3.3" y="15.94" width="41.02" height="40.81" transform="translate(-20.46 22.26) rotate(-44.16)"/></g><polygon class="cls-2" points="14.35 0.34 14.32 0.37 14.38 0.37 14.35 0.34"/><g class="cls-7"><rect class="cls-8" x="10.9" y="-8.12" width="40.85" height="40.94" transform="translate(0.53 25.96) rotate(-45.37)"/></g><g class="cls-9"><rect class="cls-10" x="-8.24" y="-3.1" width="41.02" height="40.8" transform="translate(-8.69 14.06) rotate(-45.88)"/></g></svg> -->

<svg xmlns="http://www.w3.org/2000/svg" id="Group_288" width="80.185" height="68.106" viewBox="0 0 80.185 68.106">
    <defs>
        <style>
            .cls-1{fill:#0c9dbf}
        </style>
    </defs>
    <path id="Rectangle_15" d="M0 0H14.28V15.962H0z" class="cls-1" transform="translate(32.988 52.144)"/>
    <path id="Path_344" d="M1409.517 566.134h11.646a3.422 3.422 0 0 0 3.517-3.317v-30.849a14.186 14.186 0 0 1-7.074-4.426 14.584 14.584 0 0 1-21.9 0 14.587 14.587 0 0 1-21.9 0 14.191 14.191 0 0 1-7.072 4.426v31.4a2.85 2.85 0 0 0 2.93 2.764h12.236c0-.069-.022-.134-.022-.205V548.7a4.569 4.569 0 0 1 4.7-4.429h18.272a4.569 4.569 0 0 1 4.7 4.429v17.233c-.011.067-.03.132-.033.201z" class="cls-1" transform="translate(-1355.581 -498.029)"/>
    <path id="Path_345" d="M1439.365 528.2l-8.734-18.123a4.551 4.551 0 0 0-4.117-2.524h-54.333a4.735 4.735 0 0 0-4.266 2.6l-8.735 17.789a2.762 2.762 0 0 1 .128.762 7.35 7.35 0 0 0 4.671 6.854c5.427 2.017 10.592-1.73 10.709-6.649a3.084 3.084 0 0 1 6.155-.329 7.744 7.744 0 0 0 5.635 7.277 7.656 7.656 0 0 0 9.75-6.944 3.084 3.084 0 0 1 6.155-.332 7.74 7.74 0 0 0 5.635 7.277 7.656 7.656 0 0 0 9.748-6.944 3.1 3.1 0 0 1 2.148-2.994 3.057 3.057 0 0 1 4 3.044 6.29 6.29 0 0 0 2.012 5.123c6.331 4.73 13.379.466 13.379-5.346a2.821 2.821 0 0 1 .06-.541z" class="cls-1" transform="translate(-1359.18 -507.551)"/>
</svg>

